<?xml version="1.0" encoding="UTF-8"?>
<svg width="20px" height="19px" viewBox="0 0 20 19" version="1.1" xmlns="http://www.w3.org/2000/svg" xmlns:xlink="http://www.w3.org/1999/xlink">
    <!-- Generator: Sketch 50 (54983) - http://www.bohemiancoding.com/sketch -->
    <title>Combined Shape</title>
    <desc>Created with Sketch.</desc>
    <defs></defs>
    <g id="Page-1" stroke="none" stroke-width="1" fill="none" fill-rule="evenodd">
        <g id="Global-Search-with-images" transform="translate(-1271.000000, -38.000000)" fill="#454545">
            <g id="Global-search-result">
                <g id="Menu">
                    <g id="Search-input-box" transform="translate(599.000000, 0.000000)">
                        <path d="M680.984019,46.6570709 L680.984019,35.2667519 C680.984019,34.9300344 681.256982,34.6570709 681.5937,34.6570709 C681.930417,34.6570709 682.203381,34.9300344 682.203381,35.2667519 L682.203381,46.6570709 L693.980939,46.6570709 C694.317657,46.6570709 694.59062,46.9300344 694.59062,47.2667519 C694.59062,47.6034694 694.317657,47.8764329 693.980939,47.8764329 L682.203381,47.8764329 L682.203381,59.6539916 C682.203381,59.9907091 681.930417,60.2636726 681.5937,60.2636726 C681.256982,60.2636726 680.984019,59.9907091 680.984019,59.6539916 L680.984019,47.8764329 L669.5937,47.8764329 C669.256982,47.8764329 668.984019,47.6034694 668.984019,47.2667519 C668.984019,46.9300344 669.256982,46.6570709 669.5937,46.6570709 L680.984019,46.6570709 Z" id="Combined-Shape" transform="translate(681.787320, 47.460372) rotate(-315.000000) translate(-681.787320, -47.460372) "></path>
                    </g>
                </g>
            </g>
        </g>
    </g>
</svg>