<?xml version="1.0" encoding="UTF-8"?>
<svg width="19px" height="19px" viewBox="0 0 19 19" version="1.1" xmlns="http://www.w3.org/2000/svg" xmlns:xlink="http://www.w3.org/1999/xlink">
    <!-- Generator: Sketch 49.3 (51167) - http://www.bohemiancoding.com/sketch -->
    <title>Combined Shape</title>
    <desc>Created with Sketch.</desc>
    <defs></defs>
    <g id="Page-1" stroke="none" stroke-width="1" fill="none" fill-rule="evenodd">
        <g id="Home-page-Mainmenu-Tab-" transform="translate(-717.000000, -40.000000)" fill="#FFFFFF">
            <g id="TATA-Mainmenu">
                <path d="M726.19362,49.1936199 L726.19362,37.609681 C726.19362,37.2729635 726.466583,37 726.803301,37 C727.140018,37 727.412982,37.2729635 727.412982,37.609681 L727.412982,49.1936199 L738.996921,49.1936199 C739.333638,49.1936199 739.606602,49.4665833 739.606602,49.8033009 C739.606602,50.1400184 739.333638,50.4129819 738.996921,50.4129819 L727.412982,50.4129819 L727.412982,61.9969207 C727.412982,62.3336382 727.140018,62.6066017 726.803301,62.6066017 C726.466583,62.6066017 726.19362,62.3336382 726.19362,61.9969207 L726.19362,50.4129819 L714.609681,50.4129819 C714.272963,50.4129819 714,50.1400184 714,49.8033009 C714,49.4665833 714.272963,49.1936199 714.609681,49.1936199 L726.19362,49.1936199 Z" id="Combined-Shape" transform="translate(726.803301, 49.803301) rotate(-315.000000) translate(-726.803301, -49.803301) "></path>
            </g>
        </g>
    </g>
</svg>