<?xml version="1.0" encoding="UTF-8"?>
<svg width="29px" height="29px" viewBox="0 0 29 29" version="1.1" xmlns="http://www.w3.org/2000/svg" xmlns:xlink="http://www.w3.org/1999/xlink">
    <!-- Generator: Sketch 50.2 (55047) - http://www.bohemiancoding.com/sketch -->
    <title>Group 31</title>
    <desc>Created with Sketch.</desc>
    <defs></defs>
    <g id="Page-1" stroke="none" stroke-width="1" fill="none" fill-rule="evenodd" stroke-linecap="round">
        <g id="Salt-Story-Desktop" transform="translate(-247.000000, -1353.000000)" stroke="#E2A330">
            <g id="text" transform="translate(246.000000, 1024.000000)">
                <g id="Group" transform="translate(0.000000, 126.000000)">
                    <g id="Group-31" transform="translate(2.000000, 203.000000)">
                        <path d="M0.0138472229,0.671089629 L0.0138472229,24.9828587 C-0.124217348,26.986826 0.770153927,27.9888097 2.69696105,27.9888097 C4.62376817,27.9888097 11.642654,27.9888097 23.7536186,27.9888097 C25.9609139,28.1263764 27.0645616,26.9955752 27.0645616,24.5964062 C27.0645616,22.1972371 27.0645616,15.4139017 27.0645616,4.24639977 C27.1231201,1.86285968 25.9599676,0.671089629 23.5751041,0.671089629 C21.1902405,0.671089629 18.6880745,0.671089629 16.0686061,0.671089629 C14.0308601,0.586522091 13.0119871,1.63046285 13.0119871,3.80291192 C13.0119871,5.97536098 13.0119871,11.5510706 13.0119871,20.5300407" id="Path-17"></path>
                        <polyline id="Path-6" transform="translate(13.066667, 17.733333) rotate(-270.000000) translate(-13.066667, -17.733333) " points="10.2666667 12.1333333 15.8666667 17.788943 10.2666667 23.3333333"></polyline>
                    </g>
                </g>
            </g>
        </g>
    </g>
</svg>