<svg xmlns="http://www.w3.org/2000/svg" width="210.42" height="124.485" viewBox="0 0 210.42 124.485">
  <g id="Group_11" data-name="Group 11" transform="translate(-9997 338)">
    <g id="Group_8" data-name="Group 8" transform="translate(9997 -302.353)">
      <g id="Ellipse_16" data-name="Ellipse 16" transform="translate(9 9.213)" fill="#fff" stroke="#707070" stroke-width="2">
        <circle cx="35.5" cy="35.5" r="35.5" stroke="none"/>
        <circle cx="35.5" cy="35.5" r="34.5" fill="none"/>
      </g>
      <g id="Subtraction_4" data-name="Subtraction 4" transform="translate(68.178 88.839) rotate(-163)" fill="#f8f8f8">
        <path d="M 35.64599609375 70.10137939453125 C 30.96901512145996 70.10137939453125 26.43147468566895 69.18566131591797 22.15940475463867 67.379638671875 C 18.03397369384766 65.63359069824219 14.32857418060303 63.13488006591797 11.14653396606445 59.95309066772461 C 7.965494155883789 56.77025985717773 5.467174530029297 53.06464767456055 3.721204280853271 48.93938827514648 C 1.915614366531372 44.66777038574219 1.000004410743713 40.1307487487793 1.000004410743713 35.45476913452148 C 1.000004410743713 30.77886009216309 1.91560435295105 26.24189949035645 3.721384286880493 21.96991920471191 C 5.467154502868652 17.84512901306152 7.965474605560303 14.13948917388916 11.14676475524902 10.95634937286377 C 14.32863426208496 7.774369239807129 18.03391456604004 5.276309013366699 22.15949440002441 3.531759262084961 C 24.83810806274414 2.398634195327759 27.63847923278809 1.611725926399231 30.50361824035645 1.185648560523987 C 30.2957592010498 2.067799806594849 30.19091415405273 2.973779439926147 30.19091415405273 3.893739223480225 C 30.19091415405273 7.038259029388428 31.41523361206055 9.993569374084473 33.63833618164062 12.21526908874512 C 35.85956573486328 14.43769931793213 38.81488418579102 15.66186904907227 41.95947265625 15.66186904907227 C 45.05220413208008 15.66186904907227 47.97355270385742 14.47108936309814 50.18536376953125 12.30888938903809 C 52.00169372558594 10.53344345092773 53.17428207397461 8.264748573303223 53.57421875 5.798845767974854 C 55.95299530029297 7.238899707794189 58.15785598754883 8.969208717346191 60.14432525634766 10.95641899108887 C 63.32528305053711 14.13584899902344 65.82396697998047 17.84133911132812 67.57125091552734 21.97028923034668 C 69.37722778320312 26.24066925048828 70.29297637939453 30.77757835388184 70.29297637939453 35.45476913452148 C 70.29297637939453 38.47663879394531 69.903564453125 41.47517013549805 69.13555145263672 44.36703872680664 C 68.50733184814453 46.73784255981445 67.62229919433594 49.04256820678711 66.49903106689453 51.23569488525391 C 65.05195617675781 49.99688720703125 63.20940780639648 49.30694961547852 61.2685546875 49.30694961547852 C 56.82610321044922 49.30694961547852 53.2119140625 52.92009735107422 53.2119140625 57.36127090454102 C 53.2119140625 58.79219818115234 53.59298324584961 60.19897079467773 54.31393432617188 61.42951965332031 C 54.76801681518555 62.20418930053711 55.34807586669922 62.89667129516602 56.02460479736328 63.47751235961914 C 53.31448745727539 65.45336151123047 50.34897994995117 67.01657104492188 47.1917839050293 68.13201141357422 C 43.49304580688477 69.43878936767578 39.60848617553711 70.10137939453125 35.64599609375 70.10137939453125 Z" stroke="none"/>
        <path d="M 35.64599609375 69.10137939453125 C 39.49468612670898 69.10137939453125 43.26717376708984 68.45800018310547 46.85866165161133 67.18912506103516 C 49.55428695678711 66.23676300048828 52.10617065429688 64.94809722900391 54.47216415405273 63.34640121459961 C 54.08874893188477 62.91111755371094 53.74621963500977 62.43847274780273 53.45111846923828 61.93502426147461 C 52.64043045043945 60.55130386352539 52.21191787719727 58.9697265625 52.21191787719727 57.36127090454102 C 52.21191787719727 52.36870193481445 56.27470779418945 48.30694961547852 61.26855087280273 48.30694961547852 C 63.01698684692383 48.30694961547852 64.69432830810547 48.80492401123047 66.12884521484375 49.71935272216797 C 66.97592926025391 47.91163635253906 67.65946197509766 46.03349685668945 68.16905975341797 44.11035919189453 C 68.91482543945312 41.30221557617188 69.29297637939453 38.39004898071289 69.29297637939453 35.45476913452148 C 69.29297637939453 30.9121150970459 68.40379333496094 26.50625991821289 66.65031433105469 22.36001396179199 C 64.95347595214844 18.35025978088379 62.52679443359375 14.7516040802002 59.43708419799805 11.66339206695557 C 57.84141540527344 10.06712627410889 56.10079574584961 8.641592979431152 54.23982238769531 7.405220508575439 C 53.63849639892578 9.518598556518555 52.49455261230469 11.45007038116455 50.88440704345703 13.02398109436035 C 48.48463821411133 15.36991500854492 45.31502914428711 16.6618709564209 41.95947265625 16.6618709564209 C 38.54766082763672 16.6618709564209 35.34116363525391 15.33361434936523 32.93144989013672 12.92259216308594 C 30.51932907104492 10.51199245452881 29.19091796875 7.305481433868408 29.19091796875 3.893736839294434 C 29.19091796875 3.394547700881958 29.21940803527832 2.899029970169067 29.27612113952637 2.408673048019409 C 26.97285652160645 2.850339889526367 24.71988868713379 3.53443431854248 22.5489616394043 4.452792644500732 C 18.54261779785156 6.146936893463135 14.94420623779297 8.573014259338379 11.8540735244751 11.66324806213379 C 8.764150619506836 14.75497055053711 6.337695598602295 18.35391426086426 4.642473220825195 22.3592586517334 C 2.889062166213989 26.50738143920898 2.000006675720215 30.91333770751953 2.000006675720215 35.45476913452148 C 2.000006675720215 39.99626922607422 2.889062166213989 44.40230178833008 4.642117500305176 48.54962539672852 C 6.337706565856934 52.55584716796875 8.764162063598633 56.15475845336914 11.85360622406006 59.24594879150391 C 14.94419574737549 62.3363037109375 18.5428295135498 64.76308441162109 22.54878425598145 66.45857238769531 C 26.69699478149414 68.21221160888672 31.10354042053223 69.10137939453125 35.64599609375 69.10137939453125 M 35.64599609375 71.10137939453125 C 30.833984375 71.10137939453125 26.16601753234863 70.15911102294922 21.77001762390137 68.30072784423828 C 17.52392959594727 66.50360107421875 13.71240615844727 63.93292617797852 10.43945121765137 60.66021347045898 C 7.166995525360107 57.38592529296875 4.596684455871582 53.57354736328125 2.80029559135437 49.32915878295898 C 0.9423843622207642 44.93378067016602 6.597222181881079e-06 40.26568222045898 6.597222181881079e-06 35.45476913452148 C 6.597222181881079e-06 30.64385986328125 0.9423843622207642 25.97589302062988 2.80029559135437 21.58057022094727 C 4.596684455871582 17.336181640625 7.166995525360107 13.5238037109375 10.43945121765137 10.2494478225708 C 13.71289539337158 6.975892543792725 17.52490615844727 4.405825614929199 21.77001762390137 2.610714673995972 C 25.01074028015137 1.239803671836853 28.42431831359863 0.3615147471427917 31.91601753234863 -6.304253474809229e-05 C 31.43555068969727 1.238770246505737 31.19091796875 2.548403739929199 31.19091796875 3.893736839294434 C 31.19091796875 6.770448207855225 32.31055068969727 9.47454833984375 34.34521865844727 11.50793743133545 C 36.3779296875 13.541748046875 39.08202743530273 14.66187000274658 41.95947265625 14.66187000274658 C 44.7890625 14.66187000274658 47.46240615844727 13.57232570648193 49.486328125 11.59381484985352 C 51.50683975219727 9.618770599365234 52.65625 6.977603435516357 52.72411727905273 4.156558990478516 C 55.69970703125 5.780392646789551 58.43359375 7.830570220947266 60.8515625 10.2494478225708 C 64.12354278564453 13.51983737945557 66.69434356689453 17.3321590423584 68.4921875 21.58057022094727 C 70.3505859375 25.97491455078125 71.29297637939453 30.64300346374512 71.29297637939453 35.45476913452148 C 71.29297637939453 38.56219100952148 70.89258575439453 41.64703750610352 70.10205078125 44.62371444702148 C 69.33838653564453 47.50568008422852 68.2060546875 50.29218292236328 66.7373046875 52.90570449829102 C 65.3896484375 51.25421524047852 63.39697265625 50.30694961547852 61.26855087280273 50.30694961547852 C 57.3779296875 50.30694961547852 54.21191787719727 53.47149276733398 54.21191787719727 57.36127090454102 C 54.21191787719727 58.61529159545898 54.54589462280273 59.84722518920898 55.17676162719727 60.92401504516602 C 55.7900390625 61.97027969360352 56.66552734375 62.84552764892578 57.70849609375 63.45489120483398 C 54.6298828125 65.88470458984375 51.20361709594727 67.77519989013672 47.52490615844727 69.07489013671875 C 43.71875 70.41961669921875 39.72265243530273 71.10137939453125 35.64599609375 71.10137939453125 Z" stroke="none" fill="#707070"/>
      </g>
      <g id="Group_6" data-name="Group 6" transform="translate(31.906 26.496) rotate(31)">
        <g id="Ellipse_10" data-name="Ellipse 10" transform="translate(28.22)" fill="#f8f8f8" stroke="#707070" stroke-width="2">
          <circle cx="7.055" cy="7.055" r="7.055" stroke="none"/>
          <circle cx="7.055" cy="7.055" r="6.055" fill="none"/>
        </g>
        <g id="Ellipse_11" data-name="Ellipse 11" transform="translate(0)" fill="#f8f8f8" stroke="#707070" stroke-width="2">
          <circle cx="7.055" cy="7.055" r="7.055" stroke="none"/>
          <circle cx="7.055" cy="7.055" r="6.055" fill="none"/>
        </g>
      </g>
    </g>
    <g id="Group_10" data-name="Group 10" transform="matrix(1, 0.017, -0.017, 1, 10118.832, -318.006)">
      <g id="Ellipse_16-2" data-name="Ellipse 16" transform="translate(8.912 8.912)" fill="#fff" stroke="#707070" stroke-width="2">
        <circle cx="35.647" cy="35.647" r="35.647" stroke="none"/>
        <circle cx="35.647" cy="35.647" r="34.647" fill="none"/>
      </g>
      <g id="Subtraction_4-2" data-name="Subtraction 4" transform="translate(68.177 88.839) rotate(-163)" fill="#f8f8f8">
        <path d="M 35.64501571655273 70.10199737548828 C 30.96803665161133 70.10199737548828 26.43107604980469 69.18577575683594 22.16015625 67.3787841796875 C 21.70414924621582 67.18605804443359 21.2497730255127 66.98236846923828 20.8005485534668 66.76937866210938 C 21.7233943939209 65.68573760986328 22.47527885437012 64.47776031494141 23.0433464050293 63.16405487060547 C 23.82295608520508 61.36150360107422 24.21826553344727 59.44409561157227 24.21826553344727 57.46515655517578 C 24.21826553344727 55.52483367919922 23.83828544616699 53.64315414428711 23.08888626098633 51.87240600585938 C 22.36512565612793 50.16100311279297 21.32906532287598 48.62456512451172 20.00959587097168 47.30601501464844 C 18.69221687316895 45.98810577392578 17.15635681152344 44.95230484008789 15.44505596160889 44.22776412963867 C 13.67217636108398 43.47825622558594 11.79042625427246 43.09832382202148 9.851566314697266 43.09832382202148 C 7.18241024017334 43.09832382202148 4.627023696899414 43.81673431396484 2.383713006973267 45.1874885559082 C 1.46498715877533 42.04585266113281 1.000006079673767 38.77846527099609 1.000006079673767 35.45513534545898 C 1.000006079673767 30.77428436279297 1.915716052055359 26.23736572265625 3.721696138381958 21.97039413452148 C 5.466145992279053 17.84517478942871 7.964375972747803 14.13957500457764 11.14711570739746 10.95624446868896 C 14.33044624328613 7.772685050964355 18.03566551208496 5.274654865264893 22.15981674194336 3.531584978103638 C 24.83785247802734 2.398612976074219 27.63763809204102 1.611828804016113 30.50258827209473 1.185747861862183 C 30.29477119445801 2.067665338516235 30.18994522094727 2.973331689834595 30.18994522094727 3.892944812774658 C 30.18994522094727 7.037544727325439 31.41425514221191 9.992895126342773 33.63735580444336 12.21459484100342 C 35.85907745361328 14.43697452545166 38.81436538696289 15.6610746383667 41.95849609375 15.6610746383667 C 45.05184555053711 15.6610746383667 47.97305679321289 14.47041511535645 50.18401718139648 12.308424949646 C 52.00038146972656 10.53282356262207 53.17310333251953 8.264261245727539 53.57316207885742 5.799058437347412 C 55.95186233520508 7.239143848419189 58.15692520141602 8.969325065612793 60.14397430419922 10.95632457733154 C 63.32549667358398 14.13642501831055 65.82399749755859 17.84197425842285 67.57022857666016 21.97020530700684 C 69.37624359130859 26.24102401733398 70.29199981689453 30.77804565429688 70.29199981689453 35.45513534545898 C 70.29199981689453 38.47838592529297 69.90306854248047 41.4765739440918 69.13600921630859 44.36643600463867 C 68.50492095947266 46.74018096923828 67.61904907226562 49.04514694213867 66.49712371826172 51.23527908325195 C 65.05068969726562 49.99747848510742 63.20835494995117 49.30792617797852 61.26757431030273 49.30792617797852 C 56.82512664794922 49.30792617797852 53.2109375 52.92085647583008 53.2109375 57.36175537109375 C 53.2109375 58.79374313354492 53.59206771850586 60.20074462890625 54.31311798095703 61.43062591552734 C 54.76526641845703 62.20307540893555 55.34551239013672 62.89535903930664 56.02420806884766 63.47774887084961 C 53.31320190429688 65.45388031005859 50.34753799438477 67.0169677734375 47.19143676757812 68.13147735595703 C 43.49197769165039 69.43904113769531 39.60729598999023 70.10199737548828 35.64501571655273 70.10199737548828 Z" stroke="none"/>
        <path d="M 35.64501953125 69.10199737548828 C 39.49346160888672 69.10199737548828 43.26602935791016 68.45828247070312 46.85846328735352 67.18853759765625 C 49.55312728881836 66.23697662353516 52.1046257019043 64.94876861572266 54.47119140625 63.34693145751953 C 54.08697128295898 62.91123580932617 53.74459838867188 62.43893814086914 53.450439453125 61.93640518188477 C 52.63955307006836 60.55328369140625 52.21094131469727 58.97140502929688 52.21094131469727 57.36176300048828 C 52.21094131469727 52.36946105957031 56.27373123168945 48.30792999267578 61.26758575439453 48.30792999267578 C 63.01588821411133 48.30792999267578 64.69288635253906 48.80550765991211 66.12690734863281 49.71917724609375 C 66.97335052490234 47.9131965637207 67.65771484375 46.03477478027344 68.16947174072266 44.10988235473633 C 68.91432952880859 41.30369567871094 69.29199981689453 38.39181900024414 69.29199981689453 35.45513916015625 C 69.29199981689453 30.91257286071777 68.40280914306641 26.50659561157227 66.64921569824219 22.35977172851562 C 64.95346069335938 18.35081672668457 62.52697372436523 14.7521505355835 59.43688583374023 11.66343975067139 C 57.8406982421875 10.06730556488037 56.09969329833984 8.641765594482422 54.23863983154297 7.405362606048584 C 53.6372184753418 9.518222808837891 52.49323272705078 11.44945907592773 50.88315200805664 13.02340602874756 C 48.4842414855957 15.36919498443604 45.31473922729492 16.66107177734375 41.95849609375 16.66107177734375 C 38.54719543457031 16.66107177734375 35.34074020385742 15.33291721343994 32.93047332763672 12.92192840576172 C 30.51835250854492 10.51132774353027 29.18994140625 7.304783821105957 29.18994140625 3.892950534820557 C 29.18994140625 3.394084215164185 29.21841049194336 2.898864507675171 29.27508163452148 2.408793449401855 C 26.97224998474121 2.850442171096802 24.71953392028809 3.534478902816772 22.54911804199219 4.452694892883301 C 18.54427337646484 6.145339488983154 14.94598484039307 8.571361541748047 11.85428524017334 11.6632833480835 C 8.763062477111816 14.75509452819824 6.336784839630127 18.35385131835938 4.64260721206665 22.36017227172852 C 2.889096021652222 26.5031623840332 1.999996066093445 30.90893936157227 1.999996066093445 35.45513916015625 C 1.999996066093445 38.25826263427734 2.34049916267395 41.02020645141602 3.014250516891479 43.69621276855469 C 5.122010707855225 42.64517974853516 7.443712711334229 42.09832763671875 9.8515625 42.09832763671875 C 11.92494010925293 42.09832763671875 13.93771839141846 42.50480651855469 15.83495140075684 43.3068962097168 C 17.66536331176758 44.08187103271484 19.30800628662109 45.18965148925781 20.71646308898926 46.59866333007812 C 22.12757301330566 48.00879669189453 23.23568534851074 49.65216064453125 24.00981903076172 51.48266220092773 C 24.81168556213379 53.37739562988281 25.21826362609863 55.39019393920898 25.21826362609863 57.46514892578125 C 25.21826362609863 59.58145141601562 24.79530715942383 61.63241577148438 23.96121788024902 63.56093978881836 C 23.52884101867676 64.56085205078125 22.99700164794922 65.50338745117188 22.37059593200684 66.3814697265625 C 22.43027687072754 66.4071044921875 22.49005699157715 66.43257141113281 22.54980659484863 66.45782470703125 C 26.69678497314453 68.21237182617188 31.10265159606934 69.10199737548828 35.64501953125 69.10199737548828 M 35.64501953125 71.10199737548828 C 30.833984375 71.10199737548828 26.16552925109863 70.15924072265625 21.7705078125 68.29975128173828 C 20.88378524780273 67.92498016357422 20.00341796875 67.51007080078125 19.15283012390137 67.06610870361328 C 20.42529678344727 65.83233642578125 21.42529678344727 64.38641357421875 22.12548446655273 62.76715087890625 C 22.85058403015137 61.09064102172852 23.21826362609863 59.30682754516602 23.21826362609863 57.46514892578125 C 23.21826362609863 55.66021728515625 22.8652400970459 53.90972900390625 22.1679744720459 52.26214981079102 C 21.49462890625 50.66998291015625 20.53076362609863 49.24053955078125 19.3027400970459 48.01337432861328 C 18.07617378234863 46.78631591796875 16.64697456359863 45.82257080078125 15.05517387390137 45.14861679077148 C 13.40674018859863 44.45171737670898 11.65576267242432 44.09832763671875 9.8515625 44.09832763671875 C 6.931640625 44.09832763671875 4.158696174621582 45.02203750610352 1.832029461860657 46.76947402954102 C 0.6157294511795044 43.13958358764648 -3.906250185536919e-06 39.33307266235352 -3.906250185536919e-06 35.45513916015625 C -3.906250185536919e-06 30.64056205749512 0.9418960809707642 25.97259521484375 2.800785064697266 21.58062744140625 C 4.595218181610107 17.33721733093262 7.165040493011475 13.52471733093262 10.43994045257568 10.24920558929443 C 13.71484088897705 6.974061489105225 17.52685165405273 4.404050350189209 21.7705078125 2.610472679138184 C 25.01025199890137 1.239872694015503 28.42333984375 0.3616393208503723 31.91504096984863 5.9841581787623e-06 C 31.43457412719727 1.238705992698669 31.18994140625 2.548094987869263 31.18994140625 3.892950534820557 C 31.18994140625 6.769650459289551 32.30957412719727 9.473883628845215 34.34424209594727 11.50726127624512 C 36.37744140625 13.54107284545898 39.08105087280273 14.66107273101807 41.95849609375 14.66107273101807 C 44.7890625 14.66107273101807 47.46191787719727 13.57159519195557 49.48486328125 11.59345054626465 C 51.50537490844727 9.618284225463867 52.6552734375 6.97723913192749 52.72314071655273 4.156739234924316 C 55.69775009155273 5.780272483825684 58.43212890625 7.830327987670898 60.85107421875 10.24920558929443 C 64.12354278564453 13.52020645141602 66.69434356689453 17.33263969421387 68.4912109375 21.58062744140625 C 70.349609375 25.97528457641602 71.29199981689453 30.64337348937988 71.29199981689453 35.45513916015625 C 71.29199981689453 38.56573867797852 70.89160919189453 41.65020751953125 70.1025390625 44.62298202514648 C 69.3349609375 47.51007080078125 68.20166015625 50.29669570922852 66.7353515625 52.90509414672852 C 65.388671875 51.25469589233398 63.396484375 50.30792999267578 61.26758575439453 50.30792999267578 C 57.376953125 50.30792999267578 54.21094131469727 53.47235107421875 54.21094131469727 57.36176300048828 C 54.21094131469727 58.61663818359375 54.54491806030273 59.84881591796875 55.17578506469727 60.92487335205078 C 55.78564071655273 61.96673965454102 56.66112899780273 62.84173965454102 57.70751953125 63.45574951171875 C 54.6279296875 65.88568115234375 51.20215225219727 67.77569580078125 47.52441787719727 69.07440948486328 C 43.7177734375 70.41986083984375 39.72070693969727 71.10199737548828 35.64501953125 71.10199737548828 Z" stroke="none" fill="#707070"/>
      </g>
      <g id="Group_6-2" data-name="Group 6" transform="translate(33.573 15.847) rotate(31)">
        <g id="Ellipse_10-2" data-name="Ellipse 10" transform="translate(30.387 11.167)" fill="#f8f8f8" stroke="#707070" stroke-width="2">
          <circle cx="9.654" cy="9.654" r="9.654" stroke="none"/>
          <circle cx="9.654" cy="9.654" r="8.654" fill="none"/>
        </g>
        <g id="Ellipse_19" data-name="Ellipse 19" transform="translate(0 21.398)" fill="#f8f8f8" stroke="#707070" stroke-width="2">
          <circle cx="7.798" cy="7.798" r="7.798" stroke="none"/>
          <circle cx="7.798" cy="7.798" r="6.798" fill="none"/>
        </g>
        <g id="Ellipse_11-2" data-name="Ellipse 11" transform="translate(9.252 0)" fill="#f8f8f8" stroke="#707070" stroke-width="2">
          <circle cx="7.798" cy="7.798" r="7.798" stroke="none"/>
          <circle cx="7.798" cy="7.798" r="6.798" fill="none"/>
        </g>
      </g>
    </g>
    <path id="Path_4" data-name="Path 4" d="M42.33,0A42.33,42.33,0,1,1,0,42.33,42.33,42.33,0,0,1,42.33,0Z" transform="translate(10053.44 -338)" fill="#f8f8f8"/>
    <g id="Group_9" data-name="Group 9" transform="translate(10060.124 -331.316)">
      <g id="Ellipse_6" data-name="Ellipse 6" transform="translate(-0.124 0.176)" fill="#fff" stroke="#707070" stroke-width="2">
        <circle cx="35.5" cy="35.5" r="35.5" stroke="none"/>
        <circle cx="35.5" cy="35.5" r="34.5" fill="none"/>
      </g>
      <g id="Subtraction_2" data-name="Subtraction 2" transform="translate(0 0.191)" fill="#f8f8f8">
        <path d="M 35.64599609375 70.10137939453125 C 31.61416435241699 70.10137939453125 27.66381454467773 69.41506958007812 23.90469360351562 68.06150817871094 C 20.65758895874023 66.89208221435547 17.62022590637207 65.25078582763672 14.85942363739014 63.1752815246582 C 16.43074226379395 61.66853713989258 17.33886528015137 59.57598876953125 17.33886528015137 57.36127090454102 C 17.33886528015137 52.92009735107422 13.72489452362061 49.30694961547852 9.28271484375 49.30694961547852 C 7.572364807128906 49.30694961547852 5.9441237449646 49.83626556396484 4.583187103271484 50.81775283813477 C 3.520009756088257 48.67108154296875 2.680825710296631 46.41178894042969 2.083314418792725 44.08506774902344 C 1.364484429359436 41.28586959838867 1.000004410743713 38.38221740722656 1.000004410743713 35.45476913452148 C 1.000004410743713 30.77886009216309 1.91560435295105 26.24189949035645 3.721384286880493 21.96991920471191 C 5.467154502868652 17.84512901306152 7.965474605560303 14.13948917388916 11.14676475524902 10.95634937286377 C 14.32863426208496 7.774369239807129 18.03391456604004 5.276309013366699 22.15949440002441 3.531759262084961 C 24.83810806274414 2.398634195327759 27.63847923278809 1.611725926399231 30.50361824035645 1.185648560523987 C 30.2957592010498 2.067799806594849 30.19091415405273 2.973779439926147 30.19091415405273 3.893739223480225 C 30.19091415405273 7.038259029388428 31.41523361206055 9.993569374084473 33.63833618164062 12.21526908874512 C 35.85956573486328 14.43769931793213 38.81488418579102 15.66186904907227 41.95947265625 15.66186904907227 C 45.05220413208008 15.66186904907227 47.97355270385742 14.47108936309814 50.18536376953125 12.30888938903809 C 52.00169372558594 10.53344345092773 53.17428207397461 8.264748573303223 53.57421875 5.798845767974854 C 55.95299530029297 7.238899707794189 58.15785598754883 8.969208717346191 60.14432525634766 10.95641899108887 C 63.32528305053711 14.13584899902344 65.82396697998047 17.84133911132812 67.57125091552734 21.97028923034668 C 69.37722778320312 26.24066925048828 70.29297637939453 30.77757835388184 70.29297637939453 35.45476913452148 C 70.29297637939453 38.47663879394531 69.903564453125 41.47517013549805 69.13555145263672 44.36703872680664 C 68.50733184814453 46.73784255981445 67.62229919433594 49.04256820678711 66.49903106689453 51.23569488525391 C 65.05195617675781 49.99688720703125 63.20940780639648 49.30694961547852 61.2685546875 49.30694961547852 C 56.82610321044922 49.30694961547852 53.2119140625 52.92009735107422 53.2119140625 57.36127090454102 C 53.2119140625 58.79219818115234 53.59298324584961 60.19897079467773 54.31393432617188 61.42951965332031 C 54.76801681518555 62.20418930053711 55.34807586669922 62.89667129516602 56.02460479736328 63.47751235961914 C 53.31448745727539 65.45336151123047 50.34897994995117 67.01657104492188 47.1917839050293 68.13201141357422 C 43.49304580688477 69.43878936767578 39.60848617553711 70.10137939453125 35.64599609375 70.10137939453125 Z" stroke="none"/>
        <path d="M 35.64599609375 69.10137939453125 C 39.49468612670898 69.10137939453125 43.26717376708984 68.45800018310547 46.85866165161133 67.18912506103516 C 49.55428695678711 66.23676300048828 52.10617065429688 64.94809722900391 54.47216415405273 63.34640121459961 C 54.08874893188477 62.91111755371094 53.74621963500977 62.43847274780273 53.45111846923828 61.93502426147461 C 52.64043045043945 60.55130386352539 52.21191787719727 58.9697265625 52.21191787719727 57.36127090454102 C 52.21191787719727 52.36870193481445 56.27470779418945 48.30694961547852 61.26855087280273 48.30694961547852 C 63.01698684692383 48.30694961547852 64.69432830810547 48.80492401123047 66.12884521484375 49.71935272216797 C 66.97592926025391 47.91163635253906 67.65946197509766 46.03349685668945 68.16905975341797 44.11035919189453 C 68.91482543945312 41.30221557617188 69.29297637939453 38.39004898071289 69.29297637939453 35.45476913452148 C 69.29297637939453 30.9121150970459 68.40379333496094 26.50625991821289 66.65031433105469 22.36001396179199 C 64.95347595214844 18.35025978088379 62.52679443359375 14.7516040802002 59.43708419799805 11.66339206695557 C 57.84141540527344 10.06712627410889 56.10079574584961 8.641592979431152 54.23982238769531 7.405220508575439 C 53.63849639892578 9.518598556518555 52.49455261230469 11.45007038116455 50.88440704345703 13.02398109436035 C 48.48463821411133 15.36991500854492 45.31502914428711 16.6618709564209 41.95947265625 16.6618709564209 C 38.54766082763672 16.6618709564209 35.34116363525391 15.33361434936523 32.93144989013672 12.92259216308594 C 30.51932907104492 10.51199245452881 29.19091796875 7.305481433868408 29.19091796875 3.893736839294434 C 29.19091796875 3.394547700881958 29.21940803527832 2.899029970169067 29.27612113952637 2.408673048019409 C 26.97285652160645 2.850339889526367 24.71988868713379 3.53443431854248 22.5489616394043 4.452792644500732 C 18.54261779785156 6.146936893463135 14.94420623779297 8.573014259338379 11.8540735244751 11.66324806213379 C 8.764150619506836 14.75497055053711 6.337695598602295 18.35391426086426 4.642473220825195 22.3592586517334 C 2.889062166213989 26.50738143920898 2.000006675720215 30.91333770751953 2.000006675720215 35.45476913452148 C 2.000006675720215 38.29837036132812 2.353917598724365 41.11834716796875 3.051895380020142 43.83634948730469 C 3.540257453918457 45.73805618286133 4.194868564605713 47.59334182739258 5.005478858947754 49.37602233886719 C 6.305426597595215 48.67755126953125 7.765352249145508 48.30694961547852 9.282717704772949 48.30694961547852 C 14.27629566192627 48.30694961547852 18.3388729095459 52.36870193481445 18.3388729095459 57.36127090454102 C 18.3388729095459 59.44707489013672 17.6221809387207 61.43666458129883 16.35107421875 63.02315902709961 C 18.79004669189453 64.73521423339844 21.43597984313965 66.10954284667969 24.24347305297852 67.12065124511719 C 27.89361763000488 68.43496704101562 31.72998428344727 69.10137939453125 35.64599609375 69.10137939453125 M 35.64599609375 71.10137939453125 C 31.4985408782959 71.10137939453125 27.43408393859863 70.39520263671875 23.56591796875 69.00238037109375 C 19.82666206359863 67.65570068359375 16.35790634155273 65.70111846923828 13.25586223602295 63.19269180297852 C 15.1865291595459 61.87579345703125 16.3388729095459 59.69610214233398 16.3388729095459 57.36127090454102 C 16.3388729095459 53.47149276733398 13.17333984375 50.30694961547852 9.282717704772949 50.30694961547852 C 7.389650821685791 50.30694961547852 5.609862327575684 51.04803848266602 4.273439884185791 52.39361572265625 C 2.896973371505737 49.84991455078125 1.834962129592896 47.13837051391602 1.114751100540161 44.33380508422852 C 0.3750065863132477 41.45318222045898 6.597222181881079e-06 38.46588134765625 6.597222181881079e-06 35.45476913452148 C 6.597222181881079e-06 30.64385986328125 0.9423843622207642 25.97589302062988 2.80029559135437 21.58057022094727 C 4.596684455871582 17.336181640625 7.166995525360107 13.5238037109375 10.43945121765137 10.2494478225708 C 13.71289539337158 6.975892543792725 17.52490615844727 4.405825614929199 21.77001762390137 2.610714673995972 C 25.01074028015137 1.239803671836853 28.42431831359863 0.3615147471427917 31.91601753234863 -6.304253474809229e-05 C 31.43555068969727 1.238770246505737 31.19091796875 2.548403739929199 31.19091796875 3.893736839294434 C 31.19091796875 6.770448207855225 32.31055068969727 9.47454833984375 34.34521865844727 11.50793743133545 C 36.3779296875 13.541748046875 39.08202743530273 14.66187000274658 41.95947265625 14.66187000274658 C 44.7890625 14.66187000274658 47.46240615844727 13.57232570648193 49.486328125 11.59381484985352 C 51.50683975219727 9.618770599365234 52.65625 6.977603435516357 52.72411727905273 4.156558990478516 C 55.69970703125 5.780392646789551 58.43359375 7.830570220947266 60.8515625 10.2494478225708 C 64.12354278564453 13.51983737945557 66.69434356689453 17.3321590423584 68.4921875 21.58057022094727 C 70.3505859375 25.97491455078125 71.29297637939453 30.64300346374512 71.29297637939453 35.45476913452148 C 71.29297637939453 38.56219100952148 70.89258575439453 41.64703750610352 70.10205078125 44.62371444702148 C 69.33838653564453 47.50568008422852 68.2060546875 50.29218292236328 66.7373046875 52.90570449829102 C 65.3896484375 51.25421524047852 63.39697265625 50.30694961547852 61.26855087280273 50.30694961547852 C 57.3779296875 50.30694961547852 54.21191787719727 53.47149276733398 54.21191787719727 57.36127090454102 C 54.21191787719727 58.61529159545898 54.54589462280273 59.84722518920898 55.17676162719727 60.92401504516602 C 55.7900390625 61.97027969360352 56.66552734375 62.84552764892578 57.70849609375 63.45489120483398 C 54.6298828125 65.88470458984375 51.20361709594727 67.77519989013672 47.52490615844727 69.07489013671875 C 43.71875 70.41961669921875 39.72265243530273 71.10137939453125 35.64599609375 71.10137939453125 Z" stroke="none" fill="#707070"/>
      </g>
      <path id="Path_1" data-name="Path 1" d="M8697-349.962s13.639-12.461,27.84,0" transform="translate(-8675.463 398.498)" fill="none" stroke="#707070" stroke-linecap="round" stroke-width="2"/>
      <g id="Ellipse_7" data-name="Ellipse 7" transform="translate(41.876 20.176)" fill="#f8f8f8" stroke="#707070" stroke-width="2">
        <ellipse cx="7.5" cy="7" rx="7.5" ry="7" stroke="none"/>
        <ellipse cx="7.5" cy="7" rx="6.5" ry="6" fill="none"/>
      </g>
      <g id="Ellipse_8" data-name="Ellipse 8" transform="translate(13.876 20.176)" fill="#f8f8f8" stroke="#707070" stroke-width="2">
        <circle cx="7" cy="7" r="7" stroke="none"/>
        <circle cx="7" cy="7" r="6" fill="none"/>
      </g>
    </g>
    <g id="Ellipse_20" data-name="Ellipse 20" transform="matrix(0.999, 0.052, -0.052, 0.999, 10094.916, -246.15)" fill="#f8f8f8" stroke="#707070" stroke-width="2">
      <ellipse cx="9.654" cy="7.426" rx="9.654" ry="7.426" stroke="none"/>
      <ellipse cx="9.654" cy="7.426" rx="8.654" ry="6.426" fill="none"/>
    </g>
    <path id="Path_2" data-name="Path 2" d="M10103.605-190.939c1.127-5.44,16.657-7.674,18.522,0s-4.431,6.954-8.043,6.533S10102.479-185.5,10103.605-190.939Z" transform="translate(-27.409 -36.573)" fill="#f8f8f8" stroke="#707070" stroke-width="2"/>
    <path id="Path_3" data-name="Path 3" d="M.093,3.964c.969-4.354,14.318-6.142,15.921,0S12.206,9.53,9.1,9.193-.875,8.318.093,3.964Z" transform="translate(10128.282 -222.194) rotate(-112)" fill="#f8f8f8" stroke="#707070" stroke-width="2"/>
  </g>
</svg>
