<?xml version="1.0" encoding="UTF-8"?>
<svg width="22px" height="21px" viewBox="0 0 22 21" version="1.1" xmlns="http://www.w3.org/2000/svg" xmlns:xlink="http://www.w3.org/1999/xlink">
    <!-- Generator: Sketch 52.2 (67145) - http://www.bohemiancoding.com/sketch -->
    <title>Group 31</title>
    <desc>Created with Sketch.</desc>
    <g id="Page-1" stroke="none" stroke-width="1" fill="none" fill-rule="evenodd" stroke-linecap="round">
        <g id="About-Us" transform="translate(-459.000000, -2626.000000)" stroke="#FFFFFF">
            <g id="Business" transform="translate(0.000000, 2048.000000)">
                <g id="Corporate-Presentation" transform="translate(430.000000, 483.000000)">
                    <g id="Group-31" transform="translate(40.000000, 105.000000) rotate(-90.000000) translate(-40.000000, -105.000000) translate(30.000000, 95.000000)">
                        <path d="M0.00989087347,0.479349735 L0.00989087347,17.844899 C-0.0887266769,19.2763043 0.550109948,19.9920069 1.92640075,19.9920069 C3.30269155,19.9920069 8.31618145,19.9920069 16.9668704,19.9920069 C18.5435099,20.0902688 19.3318297,19.2825537 19.3318297,17.5688615 C19.3318297,15.8551694 19.3318297,11.0099298 19.3318297,3.03314269 C19.3736572,1.33061405 18.542834,0.479349735 16.8393601,0.479349735 C15.1358861,0.479349735 13.3486247,0.479349735 11.4775758,0.479349735 C10.0220429,0.418944351 9.2942765,1.16461632 9.2942765,2.71636565 C9.2942765,4.26811498 9.2942765,8.2507647 9.2942765,14.6643148" id="Path-17"></path>
                        <polyline id="Path-6" transform="translate(9.333333, 12.666667) rotate(-270.000000) translate(-9.333333, -12.666667) " points="7.33333333 8.66666667 11.3333333 12.7063879 7.33333333 16.6666667"></polyline>
                    </g>
                </g>
            </g>
        </g>
    </g>
</svg>