<?xml version="1.0" encoding="UTF-8"?>
<svg width="22px" height="22px" viewBox="0 0 22 22" version="1.1" xmlns="http://www.w3.org/2000/svg" xmlns:xlink="http://www.w3.org/1999/xlink">
    <!-- Generator: Sketch 52.4 (67378) - http://www.bohemiancoding.com/sketch -->
    <title>if_Instagram_Solid_1435170</title>
    <desc>Created with Sketch.</desc>
    <g id="Page-1" stroke="none" stroke-width="1" fill="none" fill-rule="evenodd">
        <g id="if_Instagram_Solid_1435170" transform="translate(1.000000, 1.000000)" fill-rule="nonzero" stroke="#FFFFFF">
            <g id="instagram-icon">
                <path d="M19.9246704,14.9246704 C19.8681733,16.1111111 19.6704331,16.7608286 19.5009416,17.1845574 C19.2843691,17.7495292 19.0112994,18.1638418 18.5875706,18.5875706 C18.1638418,19.0112994 17.7589454,19.2749529 17.1845574,19.5009416 C16.7514124,19.6704331 16.1111111,19.8681733 14.9246704,19.9246704 C13.6346516,19.9811676 13.2580038,20 10,20 C6.74199623,20 6.3559322,19.9905838 5.07532957,19.9246704 C3.88888889,19.8681733 3.23917137,19.6704331 2.81544256,19.5009416 C2.25047081,19.2843691 1.83615819,19.0112994 1.41242938,18.5875706 C0.988700565,18.1638418 0.725047081,17.7589454 0.49905838,17.1845574 C0.329566855,16.7514124 0.131826742,16.1111111 0.0753295669,14.9246704 C0.0188323917,13.6346516 0,13.2485876 0,10 C0,6.75141243 0.00941619586,6.3559322 0.0753295669,5.07532957 C0.131826742,3.88888889 0.329566855,3.23917137 0.49905838,2.81544256 C0.715630885,2.25047081 0.988700565,1.83615819 1.41242938,1.41242938 C1.83615819,0.988700565 2.24105461,0.725047081 2.81544256,0.49905838 C3.24858757,0.329566855 3.88888889,0.131826742 5.07532957,0.0753295669 C6.3653484,0.0188323917 6.75141243,0 10,0 C13.2485876,0 13.6440678,0.00941619586 14.9246704,0.0753295669 C16.1111111,0.131826742 16.7608286,0.329566855 17.1845574,0.49905838 C17.7495292,0.715630885 18.1638418,0.988700565 18.5875706,1.41242938 C19.0112994,1.83615819 19.2749529,2.24105461 19.5009416,2.81544256 C19.6704331,3.24858757 19.8681733,3.88888889 19.9246704,5.07532957 C19.9811676,6.3653484 20,6.75141243 20,10 C20,13.2485876 19.9811676,13.6440678 19.9246704,14.9246704 Z" id="XMLID_142_"></path>
                <path d="M10.5,6 C8.01654135,6 6,8.01654135 6,10.5 C6,12.9834586 8.01654135,15 10.5,15 C12.9834586,15 15,12.9834586 15,10.5 C15,8.01654135 12.9834586,6 10.5,6 Z" id="XMLID_145_"></path>
                <circle id="XMLID_143_" fill="#FFFFFF" cx="16" cy="4" r="1"></circle>
            </g>
        </g>
    </g>
</svg>