<?xml version="1.0" encoding="UTF-8"?>
<svg width="24px" height="23px" viewBox="0 0 24 23" version="1.1" xmlns="http://www.w3.org/2000/svg" xmlns:xlink="http://www.w3.org/1999/xlink">
    <!-- Generator: Sketch 52.4 (67378) - http://www.bohemiancoding.com/sketch -->
    <title>LinkedIn_3_</title>
    <desc>Created with Sketch.</desc>
    <g id="Page-1" stroke="none" stroke-width="1" fill="none" fill-rule="evenodd" stroke-linecap="round" stroke-linejoin="round">
        <path d="M23,13.8885862 L23,22.0225172 L18.2847931,22.0225172 L18.2847931,14.4336552 C18.2847931,12.5272414 17.6024138,11.2262069 15.8962759,11.2262069 C14.5922069,11.2262069 13.8172759,12.1031724 13.4758966,12.9505517 C13.3514828,13.2536207 13.3196207,13.6757931 13.3196207,14.1006207 L13.3196207,22.0221379 L8.60365517,22.0221379 C8.60365517,22.0221379 8.66662069,9.1692069 8.60365517,7.83782759 L13.3196207,7.83782759 L13.3196207,9.8477931 C13.3105172,9.86334483 13.298,9.87927586 13.2888966,9.89406897 L13.3196207,9.89406897 L13.3196207,9.8477931 C13.9454828,8.8832069 15.0652069,7.50441379 17.5701724,7.50441379 C20.6736897,7.5047931 23,9.53144828 23,13.8885862 Z M3.48050037,1 C1.98113026,1 1,2.06449909 1,3.46437262 C1,4.83410442 1.95222164,5.93103448 3.42233059,5.93103448 L3.45194429,5.93103448 C4.97987047,5.93103448 5.93103448,4.83410442 5.93103448,3.46437262 C5.90247841,2.06449909 4.98022301,1 3.48050037,1 Z M1.27955172,22.0221379 L5.99475862,22.0221379 L5.99475862,7.8382069 L1.27955172,7.8382069 L1.27955172,22.0221379 Z" id="LinkedIn_3_" stroke="#FFFFFF"></path>
    </g>
</svg>