<?xml version="1.0" encoding="UTF-8"?>
<svg width="22px" height="22px" viewBox="0 0 22 22" version="1.1" xmlns="http://www.w3.org/2000/svg" xmlns:xlink="http://www.w3.org/1999/xlink">
    <!-- Generator: Sketch 50 (54983) - http://www.bohemiancoding.com/sketch -->
    <title>if_phone_326545</title>
    <desc>Created with Sketch.</desc>
    <defs></defs>
    <g id="Page-1" stroke="none" stroke-width="1" fill="none" fill-rule="evenodd">
        <g id="Global-Search-with-images" transform="translate(-710.000000, -399.000000)" fill-rule="nonzero" stroke="#E2A330">
            <g id="Global-search-result">
                <g id="1" transform="translate(441.000000, 298.000000)">
                    <g id="if_phone_326545" transform="translate(270.000000, 102.000000)">
                        <path d="M4.61580081,8.76954548 C6.05087766,11.4626344 8.39478425,13.7797538 11.2449973,15.3812293 L13.4242244,13.2020022 C13.9048096,12.7214169 14.5725983,12.5650617 15.1083001,12.8809426 C16.2610516,13.2932568 17.520476,13.5 18.8888889,13.5 C19.8316979,13.5 20.5,14.1683021 20.5,15.1111111 L20.5,18.8888889 C20.5,19.8316979 19.8316979,20.5 18.8888889,20.5 C8.16830207,20.5 -0.5,11.8316979 -0.5,1.11111111 C-0.5,0.16830207 0.16830207,-0.5 1.11111111,-0.5 L5,-0.5 C5.94280904,-0.5 6.61111111,0.16830207 6.61111111,1.11111111 C6.61111111,2.38996339 6.82444741,3.66998117 7.25211943,4.95299723 C7.41238362,5.4337898 7.2846221,6.03001022 6.9715807,6.49957232 L6.90116688,6.58354315 L4.61580081,8.76954548 Z" id="Shape"></path>
                    </g>
                </g>
            </g>
        </g>
    </g>
</svg>