<?xml version="1.0" encoding="UTF-8"?>
<svg width="30px" height="27px" viewBox="0 0 30 27" version="1.1" xmlns="http://www.w3.org/2000/svg" xmlns:xlink="http://www.w3.org/1999/xlink">
    <!-- Generator: Sketch 49.3 (51167) - http://www.bohemiancoding.com/sketch -->
    <title>Path 20</title>
    <desc>Created with Sketch.</desc>
    <defs></defs>
    <g id="Page-1" stroke="none" stroke-width="1" fill="none" fill-rule="evenodd">
        <g id="Salt-Story-Desktop" transform="translate(-247.000000, -1162.000000)" stroke="#454545">
            <g id="text" transform="translate(248.000000, 1024.000000)">
                <path d="M0.910377556,165 C-1.94927541,157.050006 1.66685601,144.605713 15.4862166,145.104439 C15.4862166,142.89916 15.4862166,141.435735 15.4862166,140.714166 C15.4862166,139.85942 15.3709568,139.25658 15.8017121,139.040124 C16.0888823,138.89582 16.6110968,139.140752 17.3683556,139.774921 L27.0458776,147.731858 C27.637166,148.092581 27.9537495,148.531924 27.995628,149.049885 C28.0375066,149.567847 27.7785244,150.037277 27.2186815,150.458175 L17.9198182,157.970576 C16.8580746,158.875186 16.1966103,159.288787 15.9354254,159.211382 C15.6742405,159.133976 15.5620575,158.720374 15.5988766,157.970576 L15.5988766,153.557394 C6.61833078,153.557394 1.72216444,157.371596 0.910377556,165 Z" id="Path-20"></path>
            </g>
        </g>
    </g>
</svg>