<?xml version="1.0" encoding="UTF-8"?>
<svg width="36px" height="44px" viewBox="0 0 36 44" version="1.1" xmlns="http://www.w3.org/2000/svg" xmlns:xlink="http://www.w3.org/1999/xlink">
    <!-- Generator: Sketch 50 (54983) - http://www.bohemiancoding.com/sketch -->
    <title>close_icon</title>
    <desc>Created with Sketch.</desc>
    <defs/>
    <g id="Page-1" stroke="none" stroke-width="1" fill="none" fill-rule="evenodd">
        <g id="Story-Coffee-audio" transform="translate(-921.000000, -1924.000000)">
            <g id="Audio-Copy" transform="translate(921.000000, 1924.000000)">
                <g id="close_icon">
                    <polygon id="Rectangle-13-Copy" fill="#E2A330" transform="translate(18.000000, 22.000000) rotate(-270.000000) translate(-18.000000, -22.000000) " points="-4 4 31.0074854 4 31.0074854 33.1523537 40 40 23.606055 40 -4 40"/>
                    <path d="M17.4761905,16.4761905 L17.4761905,6.52380952 C17.4761905,6.23451751 17.710708,6 18,6 C18.289292,6 18.5238095,6.23451751 18.5238095,6.52380952 L18.5238095,16.4761905 L28.4761905,16.4761905 C28.7654825,16.4761905 29,16.710708 29,17 C29,17.289292 28.7654825,17.5238095 28.4761905,17.5238095 L18.5238095,17.5238095 L18.5238095,27.4761905 C18.5238095,27.7654825 18.289292,28 18,28 C17.710708,28 17.4761905,27.7654825 17.4761905,27.4761905 L17.4761905,17.5238095 L7.52380952,17.5238095 C7.23451751,17.5238095 7,17.289292 7,17 C7,16.710708 7.23451751,16.4761905 7.52380952,16.4761905 L17.4761905,16.4761905 Z" id="Combined-Shape" fill="#FFFFFF" transform="translate(18.000000, 17.000000) rotate(-315.000000) translate(-18.000000, -17.000000) "/>
                </g>
            </g>
        </g>
    </g>
</svg>