<svg xmlns="http://www.w3.org/2000/svg" xmlns:xlink="http://www.w3.org/1999/xlink" width="50" height="36" viewBox="0 0 50 36">
  <defs>
    <clipPath id="clip-Artboard_75">
      <rect width="50" height="36"/>
    </clipPath>
  </defs>
  <g id="Artboard_75" data-name="Artboard – 75" clip-path="url(#clip-Artboard_75)">
    <g id="Icon_feather-volume-2" data-name="Icon feather-volume-2" transform="translate(0.999 -4.395)">
      <g id="Path_6" data-name="Path 6" transform="translate(0 0.081)" fill="none" stroke-linecap="round" stroke-linejoin="round">
        <path d="M26.853,7.5,13.6,15.965H3v12.7H13.6l13.252,8.465Z" stroke="none"/>
        <path d="M 24.85295677185059 11.15090942382812 L 14.67801666259766 17.6508617401123 C 14.35646629333496 17.85627174377441 13.98287677764893 17.96541213989258 13.60131645202637 17.96541213989258 L 4.999996185302734 17.96541213989258 L 4.999996185302734 26.66353225708008 L 13.60131645202637 26.66353225708008 C 13.98287677764893 26.66353225708008 14.35646629333496 26.77267265319824 14.67801666259766 26.97808265686035 L 24.85295677185059 33.47803497314453 L 24.85295677185059 11.15090942382812 M 26.85295677185059 7.500003814697266 L 26.85295677185059 37.12894058227539 L 13.60131645202637 28.66353225708008 L 2.999996185302734 28.66353225708008 L 2.999996185302734 15.96541213989258 L 13.60131645202637 15.96541213989258 L 26.85295677185059 7.500003814697266 Z" stroke="none" fill="#e2a330"/>
      </g>
      <line id="Line_24" data-name="Line 24" y2="20" transform="translate(45.571 15.824) rotate(45)" fill="none" stroke="#e2a330" stroke-width="2"/>
      <line id="Line_25" data-name="Line 25" y2="20" transform="translate(31.428 15.824) rotate(-45)" fill="none" stroke="#e2a330" stroke-width="2"/>
    </g>
  </g>
</svg>
